<svg width="24" height="24" viewBox="0 0 24 24" fill="white" xmlns="http://www.w3.org/2000/svg">
<path d="M12 2C17.5228 2 22 6.47715 22 12C22 17.5228 17.5228 22 12 22C6.47715 22 2 17.5228 2 12C2 6.47715 6.47715 2 12 2ZM16.6406 8.23145C16.2165 7.87809 15.585 7.93546 15.2314 8.35938L10.8711 13.5908L8.64062 11.7314L8.55859 11.6699C8.13856 11.3866 7.56293 11.462 7.23145 11.8594C6.90002 12.2571 6.9297 12.8371 7.28418 13.1992L7.35938 13.2686L10.3594 15.7686C10.7836 16.1221 11.415 16.0648 11.7686 15.6406L16.7686 9.64062C17.1219 9.21638 17.0647 8.58495 16.6406 8.23145Z" fill="current"/>
</svg>
