<svg width="24" height="24" viewBox="0 0 24 24" fill="none" xmlns="http://www.w3.org/2000/svg">
<path fill-rule="evenodd" clip-rule="evenodd" d="M18.7175 5.28246C18.4246 4.98958 17.9497 4.98956 17.6569 5.28246L12 10.9393L6.34315 5.28246C6.05027 4.98958 5.57538 4.98956 5.28249 5.28246C4.98959 5.57535 4.98961 6.05024 5.28249 6.34312L10.9393 12L5.28249 17.6568C4.98959 17.9497 4.98961 18.4246 5.28249 18.7175C5.57536 19.0104 6.05025 19.0104 6.34315 18.7175L12 13.0606L17.6569 18.7175C17.9497 19.0104 18.4246 19.0104 18.7175 18.7175C19.0104 18.4246 19.0104 17.9497 18.7175 17.6568L13.0607 12L18.7175 6.34312C19.0104 6.05022 19.0104 5.57533 18.7175 5.28246Z" fill="#171719"/>
</svg>
