<svg width="20" height="20" viewBox="0 0 20 20" fill="none" xmlns="http://www.w3.org/2000/svg">
<circle cx="10.0007" cy="9.99992" r="6.66667" fill="white"/>
<path fill-rule="evenodd" clip-rule="evenodd" d="M9.99935 18.3334C14.6017 18.3334 18.3327 14.6025 18.3327 10.0001C18.3327 5.39771 14.6017 1.66675 9.99935 1.66675C5.39698 1.66675 1.66602 5.39771 1.66602 10.0001C1.66602 14.6025 5.39698 18.3334 9.99935 18.3334ZM14.5328 5.46665C14.7905 5.72432 14.7905 6.14209 14.5328 6.39976L10.896 10.0366L14.5331 13.6737C14.7908 13.9313 14.7908 14.3491 14.5331 14.6068C14.2755 14.8644 13.8577 14.8644 13.6 14.6068L9.9629 10.9697L6.6464 14.2862C6.38873 14.5438 5.97097 14.5438 5.7133 14.2862C5.45563 14.0285 5.45563 13.6107 5.7133 13.353L9.0298 10.0366L5.71362 6.72038C5.45595 6.46271 5.45595 6.04494 5.71362 5.78727C5.97129 5.5296 6.38906 5.5296 6.64673 5.78727L9.9629 9.10345L13.5997 5.46665C13.8574 5.20898 14.2751 5.20899 14.5328 5.46665Z" fill="#C2C4C8"/>
</svg>
