<svg width="20" height="20" viewBox="0 0 20 20" fill="#1D212C" stroke="none" xmlns="http://www.w3.org/2000/svg">
<path fill-rule="evenodd" clip-rule="evenodd" d="M2.19572 15.256L7.24623 9.61895L2.20233 4.31901C1.86769 4.72908 1.66699 5.25277 1.66699 5.82334V13.7598C1.66699 14.3266 1.86504 14.8472 2.19572 15.256ZM3.59708 16.0982C3.74307 16.1261 3.8938 16.1408 4.04795 16.1408H15.9527C16.1704 16.1408 16.3812 16.1116 16.5815 16.0569L13.8083 13.1143L11.6064 10.8247C10.6819 11.6718 9.24716 11.6556 8.34216 10.7761L3.59708 16.0982ZM17.8964 15.1353C18.1718 14.7469 18.3337 14.2723 18.3337 13.7598V5.82334C18.3337 5.25271 18.1329 4.72896 17.7982 4.31887L12.7019 9.67397L14.9673 12.0296L17.8964 15.1353ZM16.4115 3.48655C16.263 3.45757 16.1096 3.44238 15.9527 3.44238H4.04794C3.89637 3.44238 3.74811 3.45655 3.60441 3.48362L9.42306 9.61208C9.73625 9.94369 10.2639 9.94369 10.577 9.61208L16.4115 3.48655Z" />
</svg>
