<svg width="32" height="32" viewBox="0 0 32 32" fill="white" xmlns="http://www.w3.org/2000/svg">
<path d="M26.1111 3.33691C26.8773 3.33691 27.6121 3.64128 28.1539 4.18305C28.6956 4.72482 29 5.45962 29 6.2258V26.448C29 27.2142 28.6956 27.949 28.1539 28.4908C27.6121 29.0325 26.8773 29.3369 26.1111 29.3369H5.88889C5.12271 29.3369 4.38791 29.0325 3.84614 28.4908C3.30436 27.949 3 27.2142 3 26.448V6.2258C3 5.45962 3.30436 4.72482 3.84614 4.18305C4.38791 3.64128 5.12271 3.33691 5.88889 3.33691H26.1111ZM25.3889 25.7258V18.0702C25.3889 16.8214 24.8928 15.6236 24.0097 14.7406C23.1266 13.8575 21.9289 13.3614 20.68 13.3614C19.4522 13.3614 18.0222 14.1125 17.3289 15.2391V13.6358H13.2989V25.7258H17.3289V18.6047C17.3289 17.4925 18.2244 16.5825 19.3367 16.5825C19.873 16.5825 20.3874 16.7955 20.7666 17.1748C21.1458 17.554 21.3589 18.0684 21.3589 18.6047V25.7258H25.3889ZM8.60444 11.368C9.24804 11.368 9.86527 11.1124 10.3204 10.6573C10.7754 10.2022 11.0311 9.58495 11.0311 8.94136C11.0311 7.59803 9.94778 6.50025 8.60444 6.50025C7.95702 6.50025 7.33612 6.75743 6.87832 7.21523C6.42052 7.67303 6.16333 8.29394 6.16333 8.94136C6.16333 10.2847 7.26111 11.368 8.60444 11.368ZM10.6122 25.7258V13.6358H6.61111V25.7258H10.6122Z" fill="current"/>
</svg>
