<svg width="24" height="25" viewBox="0 0 24 25" fill="none" xmlns="http://www.w3.org/2000/svg">
<path fill-rule="evenodd" clip-rule="evenodd" d="M22 5.81055C22 6.22476 21.6642 6.56055 21.25 6.56055L2.75 6.56055C2.33579 6.56055 2 6.22476 2 5.81055C2 5.39633 2.33579 5.06055 2.75 5.06055L21.25 5.06055C21.6642 5.06055 22 5.39634 22 5.81055ZM22 18.8105C22 19.2248 21.6642 19.5605 21.25 19.5605L2.75 19.5605C2.33579 19.5605 2 19.2248 2 18.8105C2 18.3963 2.33579 18.0605 2.75 18.0605L21.25 18.0605C21.6642 18.0605 22 18.3963 22 18.8105ZM21.25 13.0605C21.6642 13.0605 22 12.7248 22 12.3105C22 11.8963 21.6642 11.5605 21.25 11.5605L2.75 11.5605C2.33579 11.5605 2 11.8963 2 12.3105C2 12.7248 2.33579 13.0605 2.75 13.0605L21.25 13.0605Z" fill="#171719"/>
</svg>
