<svg width="20" height="20" viewBox="0 0 20 20" fill="none" xmlns="http://www.w3.org/2000/svg">
<path fill-rule="evenodd" clip-rule="evenodd" d="M14.6956 1C14.1369 1 13.6011 1.2219 13.2059 1.6169L11.7985 3.02434L16.9757 8.2015L18.3831 6.79406C18.7781 6.39894 19 5.86311 19 5.30441C19 4.7457 18.778 4.20976 18.383 3.81463L16.1853 1.6169C15.7901 1.2219 15.2543 1 14.6956 1ZM15.4858 9.69138L10.3086 4.51423L1.30857 13.5143C1.11099 13.7118 1 13.9798 1 14.2592V17.9465C1 18.5283 1.47167 19 2.05351 19H5.74078C6.02019 19 6.28815 18.889 6.48572 18.6914L15.4858 9.69138Z" fill="#1D212C" stroke="none"/>
</svg>
