<svg width="24" height="24" viewBox="0 0 24 24"  xmlns="http://www.w3.org/2000/svg" fill="none"  stroke="black"  stroke-width="1.5" stroke-linejoin="round" stroke-linecap="round" >
<path d="M3.25 20.75L8.5 15.5"   />
<path d="M17.9999 10.5004L14.4999 14.0004C14.4999 14.0004 13.7678 17.0004 13.4999 18.0004C13.2319 19.0004 12 19.0004 11.4999 18.5004L8.49989 15.5004L5.54813 12.5487C4.99998 12.0004 4.99986 10.7684 5.99989 10.5004C6.99992 10.2325 9.99989 9.50041 9.99989 9.50041L13.5 6.00027V4.50042C13.5 3.0001 15.0002 3.00013 15.5 3.50041C15.9998 4.00069 20 8 20.5 8.5C21 9 21 10.5004 19.5 10.5C19 10.5 17.9999 10.5004 17.9999 10.5004Z"  />
</svg>
