<svg width="21" height="21" viewBox="0 0 21 21" fill="none" xmlns="http://www.w3.org/2000/svg">
<path fill-rule="evenodd" clip-rule="evenodd" d="M11.3099 4.01868C11.3099 3.57123 10.9471 3.2085 10.4997 3.2085C10.0522 3.2085 9.68949 3.57123 9.68949 4.01868V9.68998H4.01819C3.57072 9.68998 3.20801 10.0527 3.20801 10.5002C3.20801 10.9476 3.57072 11.3103 4.01819 11.3103H9.68949V16.9816C9.68949 17.4291 10.0522 17.7918 10.4997 17.7918C10.9471 17.7918 11.3099 17.4291 11.3099 16.9816V11.3103H16.9812C17.4286 11.3103 17.7913 10.9476 17.7913 10.5002C17.7913 10.0527 17.4286 9.68998 16.9812 9.68998H11.3099V4.01868Z" fill="white"/>
</svg>
