<svg width="20" height="20" viewBox="0 0 20 20" fill="none" xmlns="http://www.w3.org/2000/svg">
<path fill-rule="evenodd" clip-rule="evenodd" d="M10.0003 1.66699C5.39795 1.66699 1.66699 5.39795 1.66699 10.0003C1.66699 14.6027 5.39795 18.3337 10.0003 18.3337C14.6027 18.3337 18.3337 14.6027 18.3337 10.0003C18.3337 5.39795 14.6027 1.66699 10.0003 1.66699ZM12.4963 9.16699C12.036 9.16699 11.6629 8.7939 11.6629 8.33366C11.6629 7.87342 12.036 7.50033 12.4963 7.50033H12.4965H12.5046H12.5048C12.965 7.50033 13.3381 7.87342 13.3381 8.33366C13.3381 8.7939 12.965 9.16699 12.5048 9.16699H12.5046H12.4965H12.4963ZM7.49626 9.16699C7.03602 9.16699 6.66292 8.7939 6.66292 8.33366C6.66292 7.87342 7.03602 7.50033 7.49626 7.50033H7.49645H7.50459H7.50479C7.96502 7.50033 8.33812 7.87342 8.33812 8.33366C8.33812 8.7939 7.96502 9.16699 7.50479 9.16699H7.50459H7.49645H7.49626ZM11.4925 11.9173C11.8145 11.5885 12.3421 11.5829 12.6709 11.9049C12.9998 12.2269 13.0053 12.7545 12.6834 13.0833C11.9572 13.825 10.9799 14.167 10.0046 14.167L10.0005 14.167L9.99645 14.167C9.0211 14.167 8.04386 13.825 7.31769 13.0833C6.9957 12.7545 7.00125 12.2269 7.33009 11.9049C7.65894 11.5829 8.18655 11.5885 8.50854 11.9173C8.87904 12.2957 9.40513 12.5003 9.99645 12.5003L10.0005 12.5003L10.0046 12.5003C10.5959 12.5003 11.122 12.2957 11.4925 11.9173Z" fill="#1D212C" stroke="none"/>
</svg>
