<svg width="17" height="17" viewBox="0 0 17 17" fill="none" xmlns="http://www.w3.org/2000/svg">
<path fill-rule="evenodd" clip-rule="evenodd" d="M0.999023 8.50016C0.999023 4.54212 4.20765 1.3335 8.16569 1.3335C12.1237 1.3335 15.3324 4.54212 15.3324 8.50016C15.3324 12.4582 12.1237 15.6668 8.16569 15.6668C4.20765 15.6668 0.999023 12.4582 0.999023 8.50016ZM8.66553 5.83352C8.66553 5.55737 8.44167 5.33352 8.16553 5.33352C7.88938 5.33352 7.66553 5.55737 7.66553 5.83352V8.32179C7.66553 8.60042 7.80478 8.86061 8.03661 9.01516L9.88818 10.2495C10.1179 10.4027 10.4284 10.3406 10.5816 10.1109C10.7347 9.8811 10.6726 9.57067 10.4429 9.41749L8.66553 8.23259V5.83352Z" fill="current"/>
</svg>
