<svg width="17" height="17" viewBox="0 0 17 17" fill="none" xmlns="http://www.w3.org/2000/svg">
<g id="icon/pin">
<path id="Vector" d="M14.4643 6.87278C14.4528 7.06562 14.3957 7.25299 14.2976 7.41944C14.2044 7.58438 14.0772 7.72755 13.9243 7.83944C13.8576 7.88754 13.7794 7.91741 13.6976 7.92611L12.5243 8.07944C12.3941 8.10161 12.2735 8.16194 12.1776 8.25278C11.8243 8.59278 11.4643 8.91944 10.971 9.43944L10.4043 9.99944C10.3306 10.0759 10.2778 10.17 10.251 10.2728L9.62429 12.7928C9.62716 12.8194 9.62716 12.8462 9.62429 12.8728C9.53748 13.0682 9.40494 13.2398 9.23786 13.3733C9.07078 13.5067 8.87406 13.598 8.66429 13.6394H8.42429C8.29363 13.6386 8.16364 13.6207 8.03763 13.5861C7.83341 13.5235 7.64789 13.4113 7.49763 13.2594L5.80429 11.5728L2.69096 14.6861C2.59618 14.7744 2.47081 14.8225 2.34128 14.8202C2.21174 14.8179 2.08815 14.7655 1.99654 14.6739C1.90494 14.5822 1.85246 14.4587 1.85018 14.3291C1.84789 14.1996 1.89597 14.0742 1.98429 13.9794L5.09763 10.8661L3.43096 9.19944C3.28193 9.04557 3.17216 8.85806 3.11096 8.65278C3.04325 8.44848 3.03174 8.22972 3.07763 8.01944C3.11679 7.81218 3.20605 7.61764 3.33763 7.45278C3.47089 7.28568 3.64238 7.15306 3.83763 7.06611H3.91763L6.41096 6.39944C6.52141 6.36996 6.62242 6.31256 6.70429 6.23278C7.63096 5.31944 7.95096 4.99944 8.45763 4.45278C8.54387 4.36146 8.59774 4.24435 8.61096 4.11944L8.77096 2.93944C8.77851 2.85533 8.80844 2.77476 8.85763 2.70611C9.02816 2.47658 9.26798 2.30796 9.54167 2.22513C9.81536 2.1423 10.1084 2.14966 10.3776 2.24611C10.5578 2.31256 10.7216 2.41717 10.8576 2.55278L14.111 5.81944C14.2442 5.95469 14.3471 6.11685 14.4126 6.29506C14.4781 6.47326 14.5048 6.66341 14.491 6.85278L14.4643 6.87278Z" fill="#1D212C"/>
</g>
</svg>
