<svg width="25" height="25" viewBox="0 0 25 25" fill="none" xmlns="http://www.w3.org/2000/svg">
<g id="icon/pin">
<path id="Vector (Stroke)" fill-rule="evenodd" clip-rule="evenodd" d="M14.9648 4.52888C14.9007 4.50513 14.8323 4.4956 14.7641 4.50096C14.696 4.50632 14.6299 4.52643 14.5703 4.55991C14.5543 4.56893 14.5388 4.57886 14.524 4.58963L14.3228 6.13557C14.3228 6.13631 14.3227 6.13704 14.3226 6.13778C14.2568 6.63145 14.0381 7.08963 13.7009 7.45197C12.9082 8.30866 12.396 8.81954 11.0168 10.1748C11.0152 10.1763 11.0137 10.1778 11.0122 10.1792C10.7062 10.4748 10.3312 10.689 9.92134 10.8026C9.9169 10.8038 9.91245 10.805 9.90799 10.8061L6.23295 11.7516C6.1799 11.7813 6.13296 11.821 6.09484 11.8687C6.04709 11.9285 6.01461 11.999 6.00021 12.0741C5.98582 12.1492 5.98994 12.2267 6.01222 12.2999C6.0343 12.3725 6.07357 12.4386 6.12668 12.4927C6.12715 12.4932 6.12762 12.4936 6.12809 12.4941L9.17733 15.5313L12.2154 18.5815C12.2158 18.5818 12.2162 18.5822 12.2166 18.5826C12.2706 18.6359 12.3368 18.6753 12.4093 18.6974C12.4824 18.7197 12.5599 18.7238 12.635 18.7095C12.71 18.6951 12.7804 18.6626 12.8401 18.6149C12.8873 18.5771 12.9266 18.5308 12.9561 18.4784L13.8764 14.7852C13.9778 14.3615 14.1937 13.9745 14.4993 13.666C14.501 13.6643 14.5027 13.6626 14.5044 13.6609C14.7814 13.3866 15.0336 13.1366 15.2664 12.9057C16.0573 12.1216 16.6253 11.5584 17.1849 11.0176C17.1863 11.0162 17.1877 11.0148 17.1891 11.0135C17.5613 10.6593 18.0355 10.4313 18.5445 10.3617C18.5457 10.3616 18.5468 10.3614 18.5479 10.3613L20.0693 10.1604C20.0803 10.1454 20.0904 10.1298 20.0995 10.1135C20.133 10.0541 20.1531 9.98809 20.1585 9.92009C20.1639 9.85209 20.1544 9.78373 20.1307 9.71977C20.107 9.6558 20.0697 9.59775 20.0213 9.54966L20.0198 9.54813L17.5778 7.10613C17.5772 7.10551 17.5765 7.10488 17.5759 7.10426L17.5751 7.10342L15.1352 4.63849C15.135 4.63831 15.1348 4.63814 15.1346 4.63796C15.0866 4.58976 15.0286 4.55254 14.9648 4.52888ZM14.6465 3.00558C14.9316 2.98316 15.2181 3.02302 15.4862 3.1224C15.7543 3.22178 15.9975 3.37831 16.1991 3.58111L18.6384 6.04547L18.6411 6.04818L21.0789 8.48594C21.0792 8.48621 21.0795 8.48649 21.0797 8.48676C21.2821 8.68818 21.4382 8.93119 21.5374 9.19894C21.6367 9.46706 21.6764 9.75357 21.6538 10.0386C21.6312 10.3236 21.5468 10.6003 21.4066 10.8494C21.2663 11.0986 21.0735 11.3142 20.8415 11.4813C20.741 11.5537 20.6241 11.6001 20.5013 11.6163L18.7477 11.8479C18.7472 11.848 18.7467 11.848 18.7462 11.8481C18.5506 11.8751 18.3684 11.9626 18.225 12.0983C17.6737 12.6313 17.115 13.1852 16.3274 13.9661C16.0945 14.197 15.8415 14.4478 15.5628 14.7238C15.4507 14.8378 15.3718 14.9803 15.3349 15.1358C15.3345 15.1375 15.3341 15.1392 15.3337 15.1409C15.3334 15.142 15.3331 15.1431 15.3329 15.1442L14.3929 18.9162C14.3828 18.9565 14.3694 18.996 14.3528 19.0341C14.2249 19.3279 14.0274 19.586 13.7772 19.7861C13.5271 19.9863 13.2319 20.1224 12.9172 20.1827C12.6026 20.243 12.278 20.2256 11.9716 20.1321C11.6652 20.0386 11.3862 19.8718 11.1588 19.6461C11.1578 19.6451 11.1568 19.6441 11.1557 19.6431L8.62761 17.105L3.95245 21.7801C3.65956 22.073 3.18468 22.073 2.89179 21.7801C2.5989 21.4872 2.5989 21.0124 2.89179 20.7195L7.56688 16.0444L5.06583 13.5532C5.0646 13.5519 5.06337 13.5507 5.06215 13.5495C4.83692 13.322 4.67049 13.0431 4.57725 12.7368C4.48401 12.4306 4.46677 12.1062 4.52701 11.7918C4.58725 11.4774 4.72317 11.1824 4.923 10.9323C5.12284 10.6823 5.38058 10.4846 5.67395 10.3565C5.71061 10.3405 5.7485 10.3274 5.78725 10.3175L9.52666 9.35541C9.6923 9.3085 9.84388 9.22159 9.96805 9.1023C11.3444 7.74987 11.8342 7.26075 12.6006 6.43244C12.6012 6.43178 12.6018 6.43111 12.6025 6.43045C12.7304 6.29322 12.8112 6.12223 12.8355 5.9408C12.8356 5.94047 12.8356 5.94015 12.8357 5.93982L13.0674 4.15903C13.0835 4.03545 13.1301 3.91783 13.203 3.81679C13.3704 3.58497 13.5862 3.39233 13.8355 3.25225C14.0847 3.11218 14.3615 3.028 14.6465 3.00558Z" fill="#171719"/>
</g>
</svg>
