<svg width="25" height="25" viewBox="0 0 25 25" fill="none" xmlns="http://www.w3.org/2000/svg">
<g id="Iconsax">
<path id="Vector" d="M12.166 15.5C12.9617 15.5 13.7247 15.1839 14.2873 14.6213C14.8499 14.0587 15.166 13.2956 15.166 12.5C15.166 11.7044 14.8499 10.9413 14.2873 10.3787C13.7247 9.81607 12.9617 9.5 12.166 9.5C11.3704 9.5 10.6073 9.81607 10.0447 10.3787C9.48209 10.9413 9.16602 11.7044 9.16602 12.5C9.16602 13.2956 9.48209 14.0587 10.0447 14.6213C10.6073 15.1839 11.3704 15.5 12.166 15.5V15.5Z" stroke="#171719" stroke-width="1.5" stroke-miterlimit="10" stroke-linecap="round" stroke-linejoin="round"/>
<path id="Vector_2" d="M2.16602 13.3799V11.6199C2.16602 10.5799 3.01602 9.71994 4.06602 9.71994C5.87602 9.71994 6.61602 8.43994 5.70602 6.86994C5.18602 5.96994 5.49602 4.79994 6.40602 4.27994L8.13602 3.28994C8.92602 2.81994 9.94602 3.09994 10.416 3.88994L10.526 4.07994C11.426 5.64994 12.906 5.64994 13.816 4.07994L13.926 3.88994C14.396 3.09994 15.416 2.81994 16.206 3.28994L17.936 4.27994C18.846 4.79994 19.156 5.96994 18.636 6.86994C17.726 8.43994 18.466 9.71994 20.276 9.71994C21.316 9.71994 22.176 10.5699 22.176 11.6199V13.3799C22.176 14.4199 21.326 15.2799 20.276 15.2799C18.466 15.2799 17.726 16.5599 18.636 18.1299C19.156 19.0399 18.846 20.1999 17.936 20.7199L16.206 21.7099C15.416 22.1799 14.396 21.8999 13.926 21.1099L13.816 20.9199C12.916 19.3499 11.436 19.3499 10.526 20.9199L10.416 21.1099C9.94602 21.8999 8.92602 22.1799 8.13602 21.7099L6.40602 20.7199C5.97012 20.469 5.6516 20.0553 5.52036 19.5697C5.38913 19.0841 5.45589 18.5663 5.70602 18.1299C6.61602 16.5599 5.87602 15.2799 4.06602 15.2799C3.01602 15.2799 2.16602 14.4199 2.16602 13.3799V13.3799Z" stroke="#171719" stroke-width="1.5" stroke-miterlimit="10" stroke-linecap="round" stroke-linejoin="round"/>
</g>
</svg>
