<svg width="152" height="153" viewBox="0 0 152 153" fill="none" xmlns="http://www.w3.org/2000/svg">
<path d="M13.3368 31.4555C8.28243 39.296 6.47089 49.1617 7.61658 58.3222C8.17393 62.5552 9.21614 66.6437 11.1472 70.4674C12.9252 74.0727 15.7538 77.3651 18.6236 80.2052C19.994 81.5565 21.5019 82.7789 22.9858 83.9204C24.9132 85.3697 26.8407 86.819 28.8816 88.0585C32.8346 90.3999 37.5817 91.273 42.1121 91.4189C46.9091 91.5733 51.7077 90.8474 56.3052 89.7416C61.3874 88.4913 66.5917 86.7647 71.2321 84.3264C76.0099 81.7591 80.112 77.8095 81.6969 72.4984C83.0463 67.8733 81.9249 62.9285 78.3777 59.5864C75.1933 56.576 70.6249 55.1218 66.3283 55.1702C61.6036 55.2582 57.2951 57.3337 53.9856 60.6953C47.0348 67.7811 45.0669 79.189 46.2281 88.6969C46.8164 93.6245 48.3091 98.6345 51.136 102.807C54.2208 107.255 58.6328 110.251 63.8391 111.78C69.4167 113.373 75.3845 113.618 81.0859 113.855C87.2394 114.133 93.4015 114.145 99.524 113.729C111.712 113.001 123.887 111.045 135.724 107.958C138.657 107.172 141.486 106.329 144.371 105.382C146.932 104.53 145.729 100.49 143.167 101.341C121.493 108.327 98.5439 111.029 75.8691 109.339C70.9191 108.966 65.5977 108.528 61.1359 106.25C57.1985 104.256 54.3218 100.802 52.6091 96.8255C50.8241 92.6064 50.0656 87.9934 50.1306 83.487C50.163 79.1663 50.8418 74.653 52.5454 70.6262C54.1923 66.7043 56.7349 63.1314 60.4864 60.9579C63.5587 59.1627 67.5647 59.0249 71.0276 60.0167C74.3288 61.0567 77.1108 63.3071 77.9123 66.5875C78.8736 70.7001 76.4995 74.8387 73.5304 77.571C69.736 81.0769 64.346 82.7708 59.5457 84.377C55.6103 85.6376 51.4736 86.5182 47.2974 86.9706C43.1779 87.3182 38.938 87.2617 34.894 86.0911C31.0358 84.9532 27.786 82.3142 24.6085 79.9177C21.6408 77.6346 19.1424 74.8598 16.9191 71.827C14.768 69.0367 13.6348 66.119 12.7044 62.701C10.7078 55.1137 11.1198 46.4569 14.1058 39.0566C14.9172 37.0553 15.8816 35.2722 17.0077 33.4411C17.5991 32.4731 17.109 31.1234 16.165 30.6128C15.1162 30.0455 13.9281 30.4875 13.3368 31.4555Z" fill="#0066FF"/>
<path d="M102.272 92.2354C112.599 93.8217 122.738 96.2556 132.722 99.3514C135.152 100.123 137.686 100.952 140.059 101.828C140.955 102.177 142.093 102.454 142.899 103.094C143.472 103.539 143.358 103.749 142.913 104.321C142.298 105.209 141.553 105.958 140.809 106.708C139.951 107.667 138.988 108.57 138.025 109.473C136.261 111.23 134.368 112.85 132.371 114.413C127.938 117.845 123.119 120.864 118.132 123.318C117.129 123.793 116.892 125.359 117.504 126.233C118.165 127.268 119.36 127.439 120.419 126.86C125.325 124.43 130.007 121.54 134.358 118.132C136.575 116.416 138.767 114.619 140.749 112.708C142.594 110.927 144.6 109.098 146.106 107.065C147.806 104.799 148.03 102.005 145.853 100.014C143.829 98.2417 140.81 97.5576 138.356 96.705C132.973 94.8777 127.476 93.2602 121.971 91.9091C115.803 90.4034 109.603 89.0834 103.338 88.1347C102.224 87.9388 101.084 88.5423 100.807 89.6806C100.426 90.762 101.182 92.1203 102.272 92.2354Z" fill="#0066FF"/>
</svg>
