<svg width="36" height="37" viewBox="0 0 36 37" fill="none" xmlns="http://www.w3.org/2000/svg">
<path d="M9 21.5V24.5H6C5.175 24.5 4.469 24.2065 3.882 23.6195C3.295 23.0325 3.001 22.326 3 21.5V6.5C3 5.675 3.294 4.969 3.882 4.382C4.47 3.795 5.176 3.501 6 3.5H21C21.825 3.5 22.5315 3.794 23.1195 4.382C23.7075 4.97 24.001 5.676 24 6.5V9.5H21V6.5H6V21.5H9ZM15 33.5C14.175 33.5 13.469 33.2065 12.882 32.6195C12.295 32.0325 12.001 31.326 12 30.5V15.5C12 14.675 12.294 13.969 12.882 13.382C13.47 12.795 14.176 12.501 15 12.5H30C30.825 12.5 31.5315 12.794 32.1195 13.382C32.7075 13.97 33.001 14.676 33 15.5V30.5C33 31.325 32.7065 32.0315 32.1195 32.6195C31.5325 33.2075 30.826 33.501 30 33.5H15Z" fill="black"/>
</svg>
