<svg width="36" height="37" viewBox="0 0 36 37" fill="none" xmlns="http://www.w3.org/2000/svg">
<path d="M3.37527 6.53728C3.37022 6.18624 3.43564 5.83775 3.56765 5.51244C3.69967 5.18713 3.8956 4.89161 4.14384 4.64336C4.39209 4.39511 4.68762 4.19918 5.01293 4.06716C5.33824 3.93515 5.68673 3.86973 6.03777 3.87478L17.2698 4.01728C18.3477 4.03033 19.3777 4.46483 20.1393 5.22778L31.0878 16.1748C31.7223 16.8093 32.2848 17.7258 32.5158 18.7053C32.7498 19.7013 32.6598 20.9193 31.7223 21.8553L21.3573 32.2218C20.4198 33.1593 19.2018 33.2493 18.2058 33.0153C17.2493 32.7752 16.3752 32.2819 15.6753 31.5873L4.72827 20.6388C3.96667 19.8763 3.53241 18.8469 3.51777 17.7693L3.37527 6.53728ZM11.7633 9.97228C11.55 9.77356 11.2679 9.66538 10.9765 9.67052C10.685 9.67566 10.407 9.79373 10.2008 9.99985C9.99472 10.206 9.87665 10.484 9.87151 10.7755C9.86637 11.067 9.97455 11.349 10.1733 11.5623L11.2338 12.6243C11.446 12.8291 11.7303 12.9424 12.0252 12.9397C12.3202 12.937 12.6023 12.8185 12.8108 12.6098C13.0193 12.4012 13.1375 12.1189 13.1399 11.824C13.1423 11.529 13.0288 11.2449 12.8238 11.0328L11.7633 9.97228Z" fill="#171719"/>
</svg>
