<svg width="162" height="162" viewBox="0 0 162 162" fill="none" xmlns="http://www.w3.org/2000/svg">
<path d="M28.0902 115.362C40.1383 112.972 52.1865 110.582 64.2347 108.193C63.3385 106.998 62.3428 105.803 61.4466 104.508C55.5719 112.872 49.5976 121.336 43.7229 129.7C42.9264 130.795 43.5238 132.488 44.6191 133.085C45.8139 133.782 47.2079 133.284 48.0045 132.189C53.8792 123.825 59.8535 115.362 65.7282 106.998C67.1222 105.106 64.8321 102.915 62.9402 103.313C50.8921 105.703 38.8439 108.093 26.7958 110.483C25.5014 110.781 24.7048 112.275 25.1031 113.569C25.4018 114.963 26.7958 115.561 28.0902 115.362Z" fill="#0066FF"/>
<path d="M44.22 97.7376C53.281 97.1401 62.342 95.547 71.1043 92.9581C75.4854 91.6637 79.8666 90.0706 84.1481 88.3779C84.4469 88.2783 85.1438 88.1787 85.343 87.9796C85.6417 87.6808 85.5421 88.0791 85.343 87.6809C85.0443 86.8843 84.9447 88.1787 84.8451 88.577C83.949 90.668 82.9533 92.759 81.858 94.85C79.4683 99.4303 76.8794 103.911 74.0914 108.193C72.2991 110.881 76.5807 113.37 78.373 110.682C81.161 106.5 83.7499 102.119 86.04 97.5384C87.1353 95.3478 88.2306 93.1573 89.2263 90.8672C90.1224 88.7762 90.8194 86.0877 89.0271 84.2954C87.1353 82.4035 84.646 82.9014 82.4554 83.7975C80.1653 84.6937 77.8751 85.5899 75.585 86.3864C70.8056 88.0792 65.9266 89.3736 60.948 90.4688C55.4715 91.6637 49.8956 92.3607 44.3196 92.759C43.0251 92.8586 41.8303 93.8543 41.8303 95.2483C41.7307 96.4431 42.9256 97.7376 44.22 97.7376Z" fill="#0066FF"/>
<path d="M72.9969 76.1306C76.681 73.5417 81.2613 72.546 85.4433 71.2516C90.2227 69.758 95.0021 68.1649 99.7816 66.6713C102.171 65.8747 104.461 65.1777 106.851 64.3811C107.249 64.2816 107.648 64.182 108.046 63.9829C108.743 63.7838 108.345 64.0824 108.245 63.8833C108.245 63.9829 107.648 63.2859 107.648 63.2859C107.648 63.2859 106.951 65.1778 106.851 65.4765C104.959 70.1563 103.067 74.8362 101.176 79.516C98.985 84.7933 96.894 90.0706 94.7034 95.3479C94.2056 96.6423 95.3009 98.0363 96.3961 98.4346C97.7901 98.8329 98.985 97.9367 99.4829 96.7419C101.574 91.5642 103.665 86.2869 105.855 81.1091C107.946 75.9314 110.237 70.8533 112.128 65.576C112.925 63.2859 112.626 60.5974 110.237 59.4026C107.847 58.2077 104.959 59.7013 102.669 60.3983C97.3919 62.091 92.2141 63.7838 86.9369 65.4765C84.0493 66.3726 81.0622 67.3683 78.1746 68.2645C75.4862 69.1606 72.7977 70.1563 70.408 71.7495C69.3127 72.546 68.8149 73.94 69.5119 75.1349C70.2089 76.3297 71.9016 76.8276 72.9969 76.1306Z" fill="#0066FF"/>
<path d="M92.9091 51.2378C93.0087 50.5408 93.407 50.3416 94.0044 49.9434C95.0997 49.3459 96.3942 48.8481 97.589 48.3502C99.9787 47.255 102.468 46.2592 104.858 45.1639C109.836 42.9734 114.815 40.7828 119.893 38.5922C122.482 37.497 125.071 36.3021 127.66 35.2068C128.556 34.8085 129.352 34.4102 130.248 34.2111C130.547 34.1115 130.746 34.1115 131.145 34.1115C131.145 34.1115 131.642 34.1115 131.344 34.1115C131.344 34.1115 131.244 34.1115 131.244 34.0119C131.543 34.2111 131.543 34.2111 131.344 34.0119C131.642 33.3149 131.145 34.1115 131.244 33.9124C131.145 34.0119 131.244 34.3107 131.244 34.4102C131.145 34.9081 131.045 35.3063 130.945 35.8042C130.647 37.1982 130.348 38.5922 129.95 39.9862C129.352 42.4755 128.655 45.0644 127.958 47.5537C126.365 53.2292 124.573 58.9048 122.482 64.4808C121.984 65.7753 122.98 67.1692 124.175 67.5675C125.569 67.9658 126.763 67.0696 127.261 65.8748C129.352 60.1992 131.145 54.5236 132.738 48.7485C133.534 45.8609 134.331 42.9734 134.928 39.9862C135.526 37.2978 136.92 33.9123 135.327 31.3235C132.24 26.2453 124.772 30.8256 121.088 32.5184C115.412 35.0076 109.737 37.4969 104.061 39.9862C100.875 41.3802 97.6886 42.7742 94.5023 44.1682C91.9134 45.3631 88.528 46.558 88.0301 49.8438C87.831 51.1382 88.3289 52.5322 89.7229 52.9305C91.1169 53.3288 92.71 52.6318 92.9091 51.2378Z" fill="#0066FF"/>
</svg>
