<svg width="112" height="105" viewBox="0 0 112 105" fill="none" xmlns="http://www.w3.org/2000/svg">
<path d="M3.0902 86.3616C15.1383 83.9719 27.1865 81.5822 39.2347 79.1925C38.3385 77.9976 37.3428 76.8027 36.4466 75.5083C30.5719 83.8723 24.5976 92.3359 18.7229 100.7C17.9264 101.795 18.5238 103.488 19.6191 104.085C20.8139 104.782 22.2079 104.284 23.0045 103.189C28.8792 94.8252 34.8535 86.3616 40.7282 77.9976C42.1222 76.1057 39.8321 73.9152 37.9402 74.3135C25.8921 76.7032 13.8439 79.0929 1.79579 81.4826C0.501356 81.7813 -0.295227 83.2748 0.103058 84.5693C0.401773 85.9633 1.79577 86.5607 3.0902 86.3616Z" fill="#0066FF"/>
<path d="M19.2197 68.7376C28.2807 68.1401 37.3417 66.547 46.104 63.9581C50.4852 62.6637 54.8663 61.0706 59.1479 59.3779C59.4466 59.2783 60.1436 59.1787 60.3427 58.9796C60.6415 58.6808 60.5419 59.0791 60.3427 58.6809C60.044 57.8843 59.9445 59.1787 59.8449 59.577C58.9487 61.668 57.953 63.759 56.8577 65.85C54.468 70.4303 51.8792 74.911 49.0912 79.1926C47.2989 81.881 51.5805 84.3703 53.3727 81.6819C56.1607 77.4999 58.7496 73.1187 61.0398 68.5384C62.135 66.3478 63.2303 64.1573 64.2261 61.8672C65.1222 59.7762 65.8192 57.0877 64.0269 55.2954C62.135 53.4035 59.6457 53.9014 57.4552 54.7975C55.165 55.6937 52.8749 56.5899 50.5847 57.3864C45.8053 59.0792 40.9263 60.3736 35.9477 61.4688C30.4713 62.6637 24.8953 63.3607 19.3193 63.759C18.0249 63.8586 16.83 64.8543 16.83 66.2483C16.7305 67.4431 17.9253 68.7376 19.2197 68.7376Z" fill="#0066FF"/>
<path d="M47.9971 47.1306C51.6812 44.5417 56.2615 43.546 60.4435 42.2516C65.223 40.758 70.0024 39.1649 74.7818 37.6713C77.1715 36.8747 79.4617 36.1777 81.8514 35.3811C82.2497 35.2816 82.648 35.182 83.0463 34.9829C83.7433 34.7838 83.345 35.0824 83.2454 34.8833C83.2454 34.9829 82.648 34.2859 82.648 34.2859C82.648 34.2859 81.951 36.1778 81.8514 36.4765C79.9595 41.1563 78.0677 45.8362 76.1758 50.516C73.9853 55.7933 71.8943 61.0706 69.7037 66.3479C69.2058 67.6423 70.3011 69.0363 71.3964 69.4346C72.7904 69.8329 73.9853 68.9367 74.4831 67.7419C76.5741 62.5642 78.6651 57.2869 80.8557 52.1091C82.9467 46.9314 85.2368 41.8533 87.1287 36.576C87.9253 34.2859 87.6265 31.5974 85.2368 30.4026C82.8471 29.2077 79.9596 30.7013 77.6694 31.3983C72.3921 33.091 67.2144 34.7838 61.9371 36.4765C59.0495 37.3726 56.0624 38.3683 53.1748 39.2645C50.4864 40.1606 47.798 41.1563 45.4082 42.7495C44.313 43.546 43.8151 44.94 44.5121 46.1349C45.2091 47.3297 46.9018 47.8276 47.9971 47.1306Z" fill="#0066FF"/>
<path d="M67.9094 22.2378C68.009 21.5408 68.4072 21.3416 69.0047 20.9434C70.1 20.3459 71.3944 19.8481 72.5893 19.3502C74.979 18.255 77.4682 17.2592 79.858 16.1639C84.8365 13.9734 89.8151 11.7828 94.8933 9.59225C97.4821 8.49696 100.071 7.30208 102.66 6.20679C103.556 5.80851 104.353 5.41022 105.249 5.21108C105.547 5.11151 105.747 5.11153 106.145 5.11153C106.145 5.11153 106.643 5.11153 106.344 5.11153C106.344 5.11153 106.244 5.11149 106.244 5.01192C106.543 5.21107 106.543 5.21107 106.344 5.01192C106.643 4.31492 106.145 5.11152 106.244 4.91238C106.145 5.01195 106.244 5.31066 106.244 5.41023C106.145 5.90809 106.045 6.30634 105.946 6.8042C105.647 8.1982 105.348 9.59221 104.95 10.9862C104.353 13.4755 103.656 16.0644 102.959 18.5537C101.365 24.2292 99.5731 29.9048 97.4821 35.4808C96.9843 36.7752 97.98 38.1692 99.1748 38.5675C100.569 38.9658 101.764 38.0696 102.262 36.8748C104.353 31.1992 106.145 25.5236 107.738 19.7485C108.535 16.8609 109.331 13.9734 109.929 10.9862C110.526 8.29778 111.92 4.91234 110.327 2.32348C107.24 -2.75466 99.7723 1.82564 96.0881 3.51835C90.4125 6.00764 84.737 8.49692 79.0614 10.9862C75.8751 12.3802 72.6888 13.7742 69.5025 15.1682C66.9137 16.3631 63.5282 17.558 63.0304 20.8438C62.8312 22.1382 63.3291 23.5322 64.7231 23.9305C66.1171 24.3288 67.7102 23.6318 67.9094 22.2378Z" fill="#0066FF"/>
</svg>
