<svg width="162" height="162" viewBox="0 0 162 162" fill="none" xmlns="http://www.w3.org/2000/svg">
<g clip-path="url(#clip0_21_1128)">
<path d="M18.3372 18.4555C13.2829 26.296 11.4714 36.1617 12.6171 45.3222C13.1744 49.5552 14.2166 53.6437 16.1477 57.4674C17.9257 61.0727 20.7543 64.3651 23.624 67.2052C24.9944 68.5565 26.5024 69.7789 27.9863 70.9204C29.9137 72.3697 31.8412 73.819 33.8821 75.0585C37.835 77.3999 42.5822 78.273 47.1126 78.4189C51.9096 78.5733 56.7082 77.8474 61.3056 76.7416C66.3879 75.4913 71.5922 73.7647 76.2326 71.3264C81.0104 68.7591 85.1125 64.8095 86.6974 59.4984C88.0468 54.8733 86.9254 49.9285 83.3782 46.5864C80.1938 43.576 75.6254 42.1218 71.3288 42.1702C66.6041 42.2582 62.2955 44.3337 58.986 47.6953C52.0352 54.7811 50.0674 66.1891 51.2286 75.6969C51.8169 80.6245 53.3096 85.6345 56.1365 89.8072C59.2213 94.2549 63.6333 97.2514 68.8396 98.7795C74.4172 100.373 80.385 100.618 86.0864 100.855C92.2399 101.133 98.402 101.145 104.525 100.729C116.713 100.001 128.887 98.0448 140.725 94.9578C143.658 94.1719 146.486 93.3292 149.371 92.3817C151.933 91.5304 150.729 87.49 148.167 88.3413C126.494 95.3267 103.544 98.0293 80.8696 96.339C75.9196 95.9662 70.5982 95.5282 66.1364 93.2503C62.199 91.2562 59.3223 87.8022 57.6096 83.8255C55.8246 79.6064 55.0661 74.9934 55.1311 70.487C55.1635 66.1663 55.8423 61.653 57.5459 57.6262C59.1928 53.7043 61.7354 50.1314 65.4869 47.9579C68.5592 46.1627 72.5652 46.0249 76.0281 47.0167C79.3292 48.0567 82.1113 50.3071 82.9127 53.5875C83.8741 57.7001 81.5 61.8387 78.5309 64.571C74.7365 68.0769 69.3465 69.7708 64.5462 71.377C60.6108 72.6376 56.4741 73.5182 52.2979 73.9706C48.1784 74.3182 43.9385 74.2617 39.8945 73.0911C36.0362 71.9532 32.7865 69.3142 29.609 66.9177C26.6413 64.6346 24.1429 61.8598 21.9196 58.827C19.7685 56.0367 18.6353 53.119 17.7049 49.701C15.7083 42.1137 16.1203 33.4569 19.1063 26.0566C19.9177 24.0553 20.8821 22.2722 22.0082 20.4411C22.5995 19.473 22.1094 18.1234 21.1655 17.6128C20.1167 17.0455 18.9286 17.4875 18.3372 18.4555Z" fill="#0066FF"/>
<path d="M107.272 79.2354C117.598 80.8217 127.737 83.2556 137.722 86.3514C140.151 87.1233 142.685 87.9518 145.058 88.8285C145.954 89.1775 147.092 89.4542 147.899 90.0937C148.471 90.539 148.358 90.7488 147.912 91.3214C147.297 92.2086 146.553 92.9583 145.808 93.708C144.95 94.6674 143.988 95.5701 143.025 96.4728C141.261 98.2301 139.368 99.8498 137.37 101.413C132.938 104.845 128.119 107.864 123.131 110.318C122.129 110.793 121.892 112.359 122.504 113.233C123.164 114.268 124.359 114.439 125.418 113.86C130.325 111.43 135.007 108.54 139.358 105.132C141.574 103.416 143.766 101.619 145.748 99.7084C147.593 97.9271 149.599 96.0976 151.105 94.0652C152.806 91.799 153.029 89.0051 150.852 87.0142C148.828 85.2417 145.809 84.5576 143.356 83.705C137.972 81.8777 132.476 80.2602 126.97 78.9091C120.803 77.4034 114.603 76.0834 108.337 75.1347C107.223 74.9388 106.083 75.5423 105.807 76.6806C105.425 77.762 106.182 79.1203 107.272 79.2354Z" fill="#0066FF"/>
</g>
<defs>
<clipPath id="clip0_21_1128">
<rect width="162" height="162" fill="white"/>
</clipPath>
</defs>
</svg>
