<svg width="21" height="21" viewBox="0 0 21 21" fill="none" xmlns="http://www.w3.org/2000/svg">
<circle cx="10.4997" cy="10.5" r="6.66667" fill="white"/>
<path fill-rule="evenodd" clip-rule="evenodd" d="M10.5003 18.8333C15.1027 18.8333 18.8337 15.1023 18.8337 10.5C18.8337 5.89759 15.1027 2.16663 10.5003 2.16663C5.89795 2.16663 2.16699 5.89759 2.16699 10.5C2.16699 15.1023 5.89795 18.8333 10.5003 18.8333ZM15.0338 5.96653C15.2914 6.2242 15.2914 6.64197 15.0338 6.89964L11.397 10.5364L15.0341 14.1735C15.2918 14.4312 15.2918 14.849 15.0341 15.1066C14.7764 15.3643 14.3587 15.3643 14.101 15.1066L10.4639 11.4695L7.14738 14.786C6.88971 15.0437 6.47194 15.0437 6.21427 14.786C5.9566 14.5284 5.9566 14.1106 6.21427 13.8529L9.53077 10.5364L6.2146 7.22025C5.95693 6.96258 5.95693 6.54482 6.2146 6.28715C6.47227 6.02948 6.89004 6.02948 7.1477 6.28715L10.4639 9.60332L14.1007 5.96653C14.3583 5.70886 14.7761 5.70886 15.0338 5.96653Z" fill="#C2C4C8"/>
</svg>
