<svg width="211" height="52" viewBox="0 0 211 52" fill="none" xmlns="http://www.w3.org/2000/svg">
<path fill-rule="evenodd" clip-rule="evenodd" d="M47.9383 0.642456C48.6434 0.642456 49.2151 1.2141 49.2151 1.91925V29.3269H41.3187L30.4641 29.3269C29.7589 29.3269 29.1873 29.8985 29.1873 30.6037L29.1873 41.4583V49.3575L1.77679 49.3575C1.07164 49.3575 0.5 48.7859 0.5 48.0807V1.91925C0.5 1.2141 1.07164 0.642456 1.77679 0.642456H47.9383ZM48.3858 31.2421L31.1025 48.5255V41.4583L31.1025 31.2421L41.3187 31.2421H48.3858Z" fill="#0054D1"/>
<path fill-rule="evenodd" clip-rule="evenodd" d="M67.355 40.7462C68.3454 40.9938 69.3535 41.1176 70.3793 41.1176C72.2893 41.1176 73.9695 40.7992 75.4197 40.1626C76.9053 39.5259 78.1433 38.6416 79.1337 37.5097C80.1241 36.3778 80.8669 35.0337 81.3621 33.4774C81.8926 31.921 82.1579 30.2055 82.1579 28.3309V6.3653C82.1579 5.8701 82.1049 5.44565 81.9987 5.09194C81.8926 4.70285 81.6804 4.41988 81.3621 4.24302C81.0437 4.0308 80.5485 3.92468 79.8765 3.92468C79.169 3.92468 78.6208 4.04848 78.2317 4.29608C77.878 4.50831 77.6481 4.82665 77.542 5.25111C77.4358 5.67556 77.3828 6.17076 77.3828 6.7367V27.9064C77.3828 29.109 77.2413 30.2409 76.9583 31.302C76.6754 32.3278 76.2509 33.2298 75.685 34.008C75.1544 34.7861 74.4647 35.3874 73.6157 35.8119C72.7668 36.2363 71.7588 36.4486 70.5915 36.4486C69.7426 36.4486 68.9467 36.3248 68.2039 36.0772C67.4611 35.7942 66.8068 35.4759 66.2408 35.1221C65.6749 34.7684 65.2151 34.4678 64.8614 34.2202C64.26 33.6542 63.8002 33.2121 63.4819 32.8938C63.1989 32.5754 62.8098 32.4162 62.3146 32.4162C62.067 32.4162 61.8017 32.487 61.5188 32.6285C61.2712 32.7346 60.9528 32.9822 60.5637 33.3713C60.3161 33.6189 60.0862 33.9195 59.874 34.2732C59.6618 34.5916 59.5557 34.9099 59.5557 35.2283C59.5557 35.5112 59.6795 35.8119 59.9271 36.1302C60.21 36.4486 60.5461 36.8023 60.9351 37.1914C61.3596 37.6158 61.8902 38.058 62.5269 38.5178C63.1635 38.9776 63.8886 39.4021 64.7022 39.7912C65.5157 40.1802 66.4 40.4986 67.355 40.7462ZM194.797 40.64C195.151 40.8522 195.664 40.9583 196.336 40.9583C197.043 40.9583 197.556 40.8699 197.875 40.693C198.228 40.5162 198.458 40.2509 198.564 39.8972C198.67 39.5435 198.723 39.119 198.723 38.6238V24.4046C198.723 23.5557 198.883 22.8129 199.201 22.1762C199.555 21.5395 199.997 21.0266 200.527 20.6375C201.058 20.2131 201.606 19.8947 202.172 19.6825C202.773 19.4703 203.339 19.3642 203.87 19.3642C204.648 19.3642 205.214 19.4349 205.568 19.5764C205.922 19.6825 206.187 19.8063 206.364 19.9478L207 20.3722C207.213 20.4784 207.549 20.5314 208.008 20.5314C208.539 20.5314 209.052 20.2661 209.547 19.7356C210.042 19.1696 210.29 18.4976 210.29 17.7194C210.29 17.3657 210.184 17.065 209.972 16.8174C209.795 16.5345 209.547 16.2869 209.229 16.0746C208.91 15.827 208.521 15.6148 208.061 15.438C207.637 15.2611 207.177 15.1373 206.682 15.0666C206.222 14.9604 205.727 14.9074 205.196 14.9074C204.135 14.9074 203.233 15.0312 202.49 15.2788C201.783 15.5264 201.164 15.8447 200.633 16.2338C200.138 16.5875 199.714 16.9943 199.36 17.4541C199.042 17.9139 198.759 18.3738 198.511 18.8336L198.723 17.2419C198.723 16.8528 198.653 16.5168 198.511 16.2338C198.405 15.9155 198.175 15.6856 197.821 15.5441C197.503 15.3672 197.026 15.2788 196.389 15.2788C195.682 15.2788 195.169 15.3672 194.85 15.5441C194.532 15.6856 194.32 15.9332 194.214 16.2869C194.108 16.6406 194.054 17.0827 194.054 17.6133V38.5177C194.054 39.0129 194.09 39.455 194.161 39.8441C194.267 40.1978 194.479 40.4631 194.797 40.64ZM173.891 40.1626C175.554 40.87 177.446 41.2237 179.568 41.2237C181.478 41.2237 183.176 41.0115 184.662 40.587C186.183 40.1626 187.368 39.6497 188.217 39.0484C189.065 38.4471 189.49 37.8988 189.49 37.4036C189.49 37.1207 189.455 36.8554 189.384 36.6078C189.313 36.3602 189.172 36.0949 188.959 35.8119C188.782 35.4582 188.535 35.2283 188.217 35.1222C187.934 34.9807 187.633 34.9453 187.315 35.0161C187.032 35.0868 186.731 35.2106 186.413 35.3875C186.13 35.5643 185.794 35.7412 185.405 35.918C185.015 36.0949 184.556 36.2717 184.025 36.4486C183.494 36.6255 182.875 36.7669 182.168 36.8731C181.461 36.9792 180.612 37.0322 179.621 37.0322C178.277 37.0322 176.933 36.7316 175.589 36.1303C174.28 35.5289 173.184 34.68 172.299 33.5835C171.451 32.4516 171.044 31.1075 171.079 29.5512H186.413C187.651 29.5512 188.694 29.1975 189.543 28.4901C190.392 27.7473 190.816 26.4739 190.816 24.67C190.816 23.5381 190.551 22.4062 190.02 21.2743C189.49 20.1424 188.729 19.1167 187.739 18.197C186.749 17.2774 185.546 16.5523 184.131 16.0217C182.752 15.4558 181.178 15.1728 179.409 15.1728C176.827 15.1728 174.528 15.7387 172.512 16.8706C170.531 17.9671 168.975 19.4704 167.843 21.3804C166.711 23.2905 166.145 25.4658 166.145 27.9064C166.145 29.7457 166.446 31.4613 167.047 33.053C167.648 34.6447 168.515 36.0595 169.647 37.2975C170.814 38.5001 172.229 39.4552 173.891 40.1626ZM184.396 26.4208H171.079C171.044 25.0767 171.397 23.8741 172.14 22.813C172.883 21.7518 173.891 20.9206 175.165 20.3193C176.473 19.6826 177.906 19.3643 179.462 19.3643C180.806 19.3643 181.991 19.6119 183.017 20.1071C184.078 20.6023 184.909 21.2566 185.511 22.0702C186.112 22.8483 186.413 23.7326 186.413 24.723C186.413 25.5012 186.236 25.9787 185.882 26.1556C185.564 26.3324 185.068 26.4208 184.396 26.4208ZM151.244 51.3576C150.006 51.3576 148.821 51.2161 147.69 50.9331C146.558 50.6502 145.567 50.2788 144.718 49.8189C143.869 49.3591 143.197 48.8639 142.702 48.3333C142.207 47.8028 141.959 47.3076 141.959 46.8478C141.959 46.494 142.012 46.1934 142.119 45.9458C142.225 45.7336 142.384 45.5036 142.596 45.256C142.95 44.9023 143.233 44.6547 143.445 44.5133C143.657 44.3718 143.94 44.301 144.294 44.301C144.648 44.301 145.001 44.4425 145.355 44.7255C145.709 45.0438 146.133 45.3798 146.628 45.7336C147.159 46.1226 147.796 46.4587 148.538 46.7416C149.317 47.06 150.272 47.2192 151.404 47.2192C152.571 47.2192 153.614 47.0423 154.534 46.6886C155.454 46.3349 156.249 45.8043 156.921 45.0969C157.593 44.3895 158.106 43.5229 158.46 42.4971C158.814 41.5067 158.991 40.3748 158.991 39.1014L158.978 36.4292C158.305 37.3958 157.496 38.1981 156.55 38.8362C155.029 39.8619 153.207 40.3748 151.085 40.3748C149.387 40.3748 147.813 40.0742 146.363 39.4728C144.948 38.8362 143.693 37.9519 142.596 36.82C141.535 35.6881 140.704 34.3617 140.102 32.8407C139.536 31.3198 139.253 29.6573 139.253 27.8534C139.253 26.0495 139.536 24.387 140.102 22.866C140.704 21.3451 141.535 20.0186 142.596 18.8868C143.657 17.7549 144.895 16.8883 146.31 16.287C147.76 15.6503 149.334 15.332 151.032 15.332C152.588 15.332 154.003 15.6326 155.277 16.2339C156.55 16.8352 157.629 17.7018 158.513 18.8337C158.645 18.9914 158.773 19.1534 158.896 19.3198L158.885 17.0298C158.92 16.3577 159.114 15.8802 159.468 15.5972C159.857 15.3143 160.459 15.1728 161.272 15.1728C161.944 15.1728 162.422 15.2789 162.705 15.4911C163.023 15.668 163.218 15.9333 163.288 16.287C163.394 16.6053 163.447 17.0121 163.447 17.5073V39.4728C163.447 41.3475 163.147 43.01 162.545 44.4602C161.944 45.9458 161.095 47.2015 159.999 48.2272C158.902 49.253 157.611 50.0312 156.126 50.5617C154.64 51.0923 153.013 51.3576 151.244 51.3576ZM151.35 36.0241C152.765 36.0241 154.039 35.6704 155.171 34.963C156.302 34.2556 157.204 33.2829 157.876 32.0449C158.549 30.8069 158.885 29.3743 158.885 27.7473C158.885 26.1556 158.549 24.7584 157.876 23.5558C157.204 22.3178 156.285 21.3628 155.117 20.6907C153.986 20.0186 152.695 19.6826 151.244 19.6826C149.794 19.6826 148.503 20.0186 147.371 20.6907C146.239 21.3628 145.355 22.3178 144.718 23.5558C144.117 24.7584 143.816 26.1733 143.816 27.8003C143.816 29.4274 144.135 30.8599 144.771 32.0979C145.408 33.3006 146.292 34.2556 147.424 34.963C148.556 35.6704 149.865 36.0241 151.35 36.0241ZM120.64 50.9331C121.772 51.2161 122.956 51.3576 124.194 51.3576C125.963 51.3576 127.59 51.0923 129.076 50.5617C130.561 50.0312 131.852 49.253 132.949 48.2272C134.045 47.2015 134.894 45.9458 135.496 44.4602C136.097 43.01 136.398 41.3475 136.398 39.4728V17.5073C136.398 17.0121 136.345 16.6053 136.238 16.287C136.168 15.9333 135.973 15.668 135.655 15.4911C135.372 15.2789 134.894 15.1728 134.222 15.1728C133.409 15.1728 132.807 15.3143 132.418 15.5972C132.065 15.8802 131.87 16.3577 131.835 17.0298L131.846 19.3198C131.723 19.1534 131.595 18.9914 131.463 18.8337C130.579 17.7018 129.5 16.8352 128.227 16.2339C126.953 15.6326 125.539 15.332 123.982 15.332C122.284 15.332 120.71 15.6503 119.26 16.287C117.845 16.8883 116.607 17.7549 115.546 18.8868C114.485 20.0186 113.654 21.3451 113.053 22.866C112.487 24.387 112.204 26.0495 112.204 27.8534C112.204 29.6573 112.487 31.3198 113.053 32.8407C113.654 34.3617 114.485 35.6881 115.546 36.82C116.643 37.9519 117.898 38.8362 119.313 39.4728C120.763 40.0742 122.337 40.3748 124.035 40.3748C126.158 40.3748 127.979 39.8619 129.5 38.8362C130.446 38.1981 131.256 37.3958 131.928 36.4292L131.941 39.1014C131.941 40.3748 131.764 41.5067 131.41 42.4971C131.056 43.5229 130.544 44.3895 129.872 45.0969C129.2 45.8043 128.404 46.3349 127.484 46.6886C126.564 47.0423 125.521 47.2192 124.354 47.2192C123.222 47.2192 122.267 47.06 121.489 46.7416C120.746 46.4587 120.109 46.1226 119.579 45.7336C119.083 45.3798 118.659 45.0438 118.305 44.7255C117.951 44.4425 117.598 44.301 117.244 44.301C116.89 44.301 116.607 44.3718 116.395 44.5133C116.183 44.6547 115.9 44.9023 115.546 45.256C115.334 45.5036 115.175 45.7336 115.069 45.9458C114.963 46.1934 114.91 46.494 114.91 46.8478C114.91 47.3076 115.157 47.8028 115.652 48.3333C116.148 48.8639 116.82 49.3591 117.668 49.8189C118.517 50.2788 119.508 50.6502 120.64 50.9331ZM128.121 34.963C126.989 35.6704 125.715 36.0241 124.301 36.0241C122.815 36.0241 121.506 35.6704 120.374 34.963C119.242 34.2556 118.358 33.3006 117.722 32.0979C117.085 30.8599 116.767 29.4274 116.767 27.8003C116.767 26.1733 117.067 24.7584 117.668 23.5558C118.305 22.3178 119.189 21.3628 120.321 20.6907C121.453 20.0186 122.744 19.6826 124.194 19.6826C125.645 19.6826 126.936 20.0186 128.068 20.6907C129.235 21.3628 130.155 22.3178 130.827 23.5558C131.499 24.7584 131.835 26.1556 131.835 27.7473C131.835 29.3743 131.499 30.8069 130.827 32.0449C130.155 33.2829 129.253 34.2556 128.121 34.963ZM96.8716 41.0114C95.3153 41.0114 93.8651 40.7284 92.521 40.1625C91.2122 39.5966 90.0627 38.8007 89.0723 37.7749C88.0819 36.7492 87.3037 35.5112 86.7378 34.0609C86.2072 32.6107 85.9419 30.966 85.9419 29.1267V17.6133C85.9419 17.1181 85.995 16.6937 86.1011 16.3399C86.2072 15.9862 86.4194 15.7209 86.7378 15.5441C87.0915 15.3319 87.6044 15.2257 88.2764 15.2257C88.9485 15.2257 89.4437 15.3319 89.762 15.5441C90.1157 15.7563 90.3456 16.0393 90.4517 16.393C90.5579 16.7467 90.6109 17.1712 90.6109 17.6664V29.1797C90.6109 30.6299 90.8585 31.921 91.3537 33.0529C91.8489 34.1494 92.5917 34.9983 93.5821 35.5996C94.6079 36.2009 95.8459 36.5016 97.2961 36.5016C98.7817 36.5016 100.055 36.2009 101.116 35.5996C102.213 34.9983 103.044 34.1494 103.61 33.0529C104.211 31.921 104.512 30.6299 104.512 29.1797V17.6133C104.512 17.1181 104.565 16.6937 104.671 16.3399C104.777 15.9862 104.989 15.7209 105.308 15.5441C105.661 15.3319 106.174 15.2257 106.846 15.2257C107.518 15.2257 108.014 15.3319 108.332 15.5441C108.686 15.7563 108.898 16.0393 108.969 16.393C109.075 16.7467 109.128 17.1712 109.128 17.6664V38.73C109.128 39.1544 109.075 39.5435 108.969 39.8972C108.898 40.2156 108.686 40.4631 108.332 40.64C108.014 40.8169 107.518 40.9053 106.846 40.9053C106.351 40.9053 105.944 40.8522 105.626 40.7461C105.343 40.64 105.131 40.4985 104.989 40.3217C104.848 40.1448 104.742 39.9503 104.671 39.738C104.636 39.4904 104.618 39.2428 104.618 38.9952L104.83 36.7138C104.476 37.1382 104.052 37.5981 103.557 38.0933C103.062 38.5885 102.478 39.066 101.806 39.5258C101.169 39.9503 100.444 40.304 99.6306 40.5869C98.817 40.8699 97.8974 41.0114 96.8716 41.0114Z" fill="black"/>
</svg>
