<svg width="24" height="24" viewBox="0 0 24 24" fill="#0066FF" xmlns="http://www.w3.org/2000/svg">
<path d="M13.2689 1.07221C14.9701 0.676332 16.6061 1.95793 16.6062 3.69966V5.90792C16.6062 6.43041 17.1009 6.81384 17.6115 6.68712L18.6224 6.43625L18.6627 6.42655C20.3639 6.03067 22 7.31227 22 9.054V18.0246C22 19.2628 21.1511 20.3422 19.941 20.6425L10.7714 22.9181C9.05577 23.3438 7.39384 22.0557 7.39382 20.3002V18.0919C7.39378 17.5695 6.8991 17.1862 6.38847 17.3129L5.37756 17.5638C3.66195 17.9895 2.00002 16.7013 2 14.9459V5.97527C2.00002 4.73709 2.84896 3.65783 4.05903 3.35752L13.2286 1.0819L13.2689 1.07221ZM15.1376 9.61843C15.1376 8.8724 14.4312 8.32506 13.7021 8.50595L9.80509 9.47302C9.29084 9.60064 8.93011 10.0593 8.93006 10.5855V14.3981C8.93011 15.1442 9.63632 15.6916 10.3654 15.5106L14.2624 14.5436C14.7767 14.4159 15.1376 13.9571 15.1376 13.4309V9.61843Z" fill="current"/>
</svg>
