<svg width="210" height="60" viewBox="0 0 210 60" fill="white" xmlns="http://www.w3.org/2000/svg">
<path d="M189.371 41.5946V19.0815H193.865V22.4847H194.039C195.196 20.0632 197.377 18.4707 199.93 18.4707C200.737 18.4707 201.478 18.6234 202.242 18.907V23.27C201.369 23.03 200.497 22.8991 199.711 22.8773C196.003 22.8991 193.865 25.7351 193.865 30.6871V41.5946H189.371Z" />
<path d="M175.397 42.2054C168.46 42.2054 163.486 37.1225 163.486 30.338C163.486 23.51 168.395 18.4707 174.961 18.4707C181.527 18.4707 186.087 23.51 186.087 30.338C186.087 30.8398 186.065 31.3633 185.999 31.8651H168.111C168.656 35.7045 171.558 38.1914 175.441 38.1914C178.299 38.1914 180.327 36.8607 181.375 34.6574L185.345 36.2717C183.556 39.893 180.088 42.2054 175.397 42.2054ZM168.286 27.8948H181.331C181.026 24.8407 178.517 22.4847 174.961 22.4847C171.58 22.4847 169.049 24.6007 168.286 27.8948Z" />
<path d="M149.119 37.3625C153.089 37.3406 155.904 34.3084 155.925 29.989C155.904 25.6696 153.089 22.6374 149.119 22.6155C145.149 22.6374 142.357 25.7133 142.357 29.989C142.357 34.2647 145.149 37.3406 149.119 37.3625ZM148.639 51.6294C144.145 51.6294 140.873 49.797 138.255 46.1321L141.615 43.6015C143.535 46.372 145.607 47.5064 148.552 47.4846C153.177 47.5064 155.707 44.6705 155.751 39.3258V37.6242H155.576C154.093 40.1766 151.65 41.5073 148.465 41.5073C142.226 41.5073 137.775 36.5335 137.775 29.989C137.775 23.4445 142.226 18.4707 148.465 18.4707C151.65 18.4707 154.049 19.7796 155.576 22.3101H155.751V19.0815H160.245V39.3258C160.223 47.0919 155.773 51.6294 148.639 51.6294Z" />
<path d="M123.408 37.3625C127.379 37.3406 130.193 34.3084 130.214 29.989C130.193 25.6696 127.379 22.6374 123.408 22.6155C119.438 22.6374 116.646 25.7133 116.646 29.989C116.646 34.2647 119.438 37.3406 123.408 37.3625ZM122.928 51.6294C118.434 51.6294 115.162 49.797 112.544 46.1321L115.904 43.6015C117.824 46.372 119.896 47.5064 122.841 47.4846C127.466 47.5064 129.996 44.6705 130.04 39.3258V37.6242H129.865C128.382 40.1766 125.939 41.5073 122.754 41.5073C116.515 41.5073 112.064 36.5335 112.064 29.989C112.064 23.4445 116.515 18.4707 122.754 18.4707C125.939 18.4707 128.338 19.7796 129.865 22.3101H130.04V19.0815H134.534V39.3258C134.512 47.0919 130.062 51.6294 122.928 51.6294Z" />
<path d="M108.824 19.0811V41.5941H104.33V38.3218H104.199C103.021 40.7215 100.556 42.2049 97.3495 42.2049C92.332 42.2049 89.4961 38.6054 89.4961 32.7372V19.0811H93.99V32.0391C94.0118 35.8786 95.6915 37.9946 98.6584 37.9728C101.625 37.9946 104.33 35.8786 104.33 31.2102V19.0811H108.824Z" />
<path d="M74.9261 42.2057C69.7342 42.2057 66.1565 38.9771 64.9785 33.567L69.6469 32.6071C70.4323 36.1193 72.3083 37.7336 74.9261 37.7118C78.3511 37.7336 80.6198 35.0286 80.6417 30.731V10.0068H85.3973V30.731C85.3973 37.6246 81.1216 42.2057 74.9261 42.2057Z"/>
<path d="M34.3156 4.18308C38.3232 3.24363 42.1772 6.28495 42.1773 10.4182V15.6585C42.1773 16.8984 43.3427 17.8084 44.5456 17.5077L46.927 16.9123L47.0218 16.8893C51.0294 15.9498 54.8834 18.9912 54.8835 23.1244V44.4122C54.8835 47.3506 52.8836 49.9121 50.033 50.6247L28.4323 56.0249C24.3908 57.0352 20.4758 53.9783 20.4758 49.8124V44.5721C20.4756 43.3322 19.3103 42.4226 18.1074 42.7234L15.726 43.3187C11.6846 44.329 7.76958 41.2721 7.76953 37.1062V15.8184C7.76957 12.8801 9.76942 10.3189 12.62 9.60628L34.2208 4.20608L34.3156 4.18308ZM38.7178 24.4639C38.7177 22.6935 37.0536 21.3946 35.3361 21.8238L26.156 24.1188C24.9445 24.4216 24.0948 25.5101 24.0947 26.7588V35.8064C24.0948 37.5769 25.7584 38.8758 27.476 38.4464L36.6561 36.1515C37.8675 35.8486 38.7178 34.7598 38.7178 33.5111V24.4639Z" fill="#0066FF"/>
</svg>
